<svg xmlns="http://www.w3.org/2000/svg" aria-hidden="true" style="display:none" id="royalte-icon-registry">
  <!--
    Royaltē Executive Icon Registry™
    Board Standard: Phosphor Icons — Duotone style only.
    IDs are Royaltē business functions — NOT Phosphor icon names.
    Workspaces reference business functions; this file is the sole
    coupling point between UI and the icon library.
    Usage: <svg class="royalte-icon" fill="currentColor">
             <use href="/icons/royalte-icon-registry.svg#royalte-[function]"></use>
           </svg>
  -->

  <!-- ── Navigation ──────────────────────────────────────────────── -->

  <!-- ── Navigation ──────────────────────────────────────── -->
  <symbol id="royalte-mission-control" viewBox="0 0 256 256"><rect x="48" y="48" width="64" height="64" rx="8" opacity="0.2"/><rect x="144" y="48" width="64" height="64" rx="8" opacity="0.2"/><rect x="48" y="144" width="64" height="64" rx="8" opacity="0.2"/><rect x="144" y="144" width="64" height="64" rx="8" opacity="0.2"/><rect x="144" y="144" width="64" height="64" rx="8" fill="none" stroke="currentColor" stroke-linecap="round" stroke-linejoin="round" stroke-width="16"/><rect x="48" y="48" width="64" height="64" rx="8" fill="none" stroke="currentColor" stroke-linecap="round" stroke-linejoin="round" stroke-width="16"/><rect x="144" y="48" width="64" height="64" rx="8" fill="none" stroke="currentColor" stroke-linecap="round" stroke-linejoin="round" stroke-width="16"/><rect x="48" y="144" width="64" height="64" rx="8" fill="none" stroke="currentColor" stroke-linecap="round" stroke-linejoin="round" stroke-width="16"/></symbol>
  <symbol id="royalte-health" viewBox="0 0 256 256"><polygon points="56 128 96 40 160 208 200 128 56 128" opacity="0.2"/><polyline points="24 128 56 128 96 40 160 208 200 128 232 128" fill="none" stroke="currentColor" stroke-linecap="round" stroke-linejoin="round" stroke-width="16"/></symbol>
  <symbol id="royalte-identity" viewBox="0 0 256 256"><path d="M216,48H40a8,8,0,0,0-8,8V200a8,8,0,0,0,8,8H216a8,8,0,0,0,8-8V56A8,8,0,0,0,216,48ZM96,144a24,24,0,1,1,24-24A24,24,0,0,1,96,144Z" opacity="0.2"/><line x1="152" y1="112" x2="192" y2="112" fill="none" stroke="currentColor" stroke-linecap="round" stroke-linejoin="round" stroke-width="16"/><line x1="152" y1="144" x2="192" y2="144" fill="none" stroke="currentColor" stroke-linecap="round" stroke-linejoin="round" stroke-width="16"/><rect x="32" y="48" width="192" height="160" rx="8" fill="none" stroke="currentColor" stroke-linecap="round" stroke-linejoin="round" stroke-width="16"/><circle cx="96" cy="120" r="24" fill="none" stroke="currentColor" stroke-linecap="round" stroke-linejoin="round" stroke-width="16"/><path d="M64,168c3.55-13.8,17.09-24,32-24s28.46,10.19,32,24" fill="none" stroke="currentColor" stroke-linecap="round" stroke-linejoin="round" stroke-width="16"/></symbol>
  <symbol id="royalte-publishing" viewBox="0 0 256 256"><polygon points="152 32 152 88 208 88 152 32" opacity="0.2"/><path d="M200,224H56a8,8,0,0,1-8-8V40a8,8,0,0,1,8-8h96l56,56V216A8,8,0,0,1,200,224Z" fill="none" stroke="currentColor" stroke-linecap="round" stroke-linejoin="round" stroke-width="16"/><polyline points="152 32 152 88 208 88" fill="none" stroke="currentColor" stroke-linecap="round" stroke-linejoin="round" stroke-width="16"/><line x1="96" y1="136" x2="160" y2="136" fill="none" stroke="currentColor" stroke-linecap="round" stroke-linejoin="round" stroke-width="16"/><line x1="96" y1="168" x2="160" y2="168" fill="none" stroke="currentColor" stroke-linecap="round" stroke-linejoin="round" stroke-width="16"/></symbol>
  <symbol id="royalte-catalog" viewBox="0 0 256 256"><path d="M128,32a96,96,0,1,0,96,96A96,96,0,0,0,128,32Zm0,120a24,24,0,1,1,24-24A24,24,0,0,1,128,152Z" opacity="0.2"/><circle cx="128" cy="128" r="96" fill="none" stroke="currentColor" stroke-linecap="round" stroke-linejoin="round" stroke-width="16"/><path d="M64,128a64,64,0,0,1,64-64" fill="none" stroke="currentColor" stroke-linecap="round" stroke-linejoin="round" stroke-width="16"/><path d="M192,128a64,64,0,0,1-64,64" fill="none" stroke="currentColor" stroke-linecap="round" stroke-linejoin="round" stroke-width="16"/><circle cx="128" cy="128" r="24" fill="none" stroke="currentColor" stroke-linecap="round" stroke-linejoin="round" stroke-width="16"/></symbol>
  <symbol id="royalte-global" viewBox="0 0 256 256"><circle cx="128" cy="128" r="96" opacity="0.2"/><circle cx="128" cy="128" r="96" fill="none" stroke="currentColor" stroke-linecap="round" stroke-linejoin="round" stroke-width="16"/><path d="M168,128c0,64-40,96-40,96s-40-32-40-96,40-96,40-96S168,64,168,128Z" fill="none" stroke="currentColor" stroke-linecap="round" stroke-linejoin="round" stroke-width="16"/><line x1="37.46" y1="96" x2="218.54" y2="96" fill="none" stroke="currentColor" stroke-linecap="round" stroke-linejoin="round" stroke-width="16"/><line x1="37.46" y1="160" x2="218.54" y2="160" fill="none" stroke="currentColor" stroke-linecap="round" stroke-linejoin="round" stroke-width="16"/></symbol>
  <symbol id="royalte-ai-insights" viewBox="0 0 256 256"><path d="M78.7,167A79.87,79.87,0,0,1,48,104.45C47.76,61.09,82.72,25,126.07,24a80,80,0,0,1,51.34,142.9A24.3,24.3,0,0,0,168,186v6a8,8,0,0,1-8,8H96a8,8,0,0,1-8-8v-6A24.11,24.11,0,0,0,78.7,167Z" opacity="0.2"/><line x1="88" y1="232" x2="168" y2="232" fill="none" stroke="currentColor" stroke-linecap="round" stroke-linejoin="round" stroke-width="16"/><line x1="128" y1="200" x2="128" y2="144" fill="none" stroke="currentColor" stroke-linecap="round" stroke-linejoin="round" stroke-width="16"/><polyline points="96 112 128 144 160 112" fill="none" stroke="currentColor" stroke-linecap="round" stroke-linejoin="round" stroke-width="16"/><path d="M78.7,167A79.87,79.87,0,0,1,48,104.45C47.76,61.09,82.72,25,126.07,24a80,80,0,0,1,51.34,142.9A24.3,24.3,0,0,0,168,186v6a8,8,0,0,1-8,8H96a8,8,0,0,1-8-8v-6A24.11,24.11,0,0,0,78.7,167Z" fill="none" stroke="currentColor" stroke-linecap="round" stroke-linejoin="round" stroke-width="16"/></symbol>
  <symbol id="royalte-backend" viewBox="0 0 256 256"><rect x="104" y="32" width="48" height="48" rx="8" opacity="0.2"/><rect x="40" y="168" width="48" height="48" rx="8" opacity="0.2"/><rect x="168" y="168" width="48" height="48" rx="8" opacity="0.2"/><rect x="104" y="32" width="48" height="48" rx="8" fill="none" stroke="currentColor" stroke-linecap="round" stroke-linejoin="round" stroke-width="16"/><rect x="40" y="168" width="48" height="48" rx="8" fill="none" stroke="currentColor" stroke-linecap="round" stroke-linejoin="round" stroke-width="16"/><rect x="168" y="168" width="48" height="48" rx="8" fill="none" stroke="currentColor" stroke-linecap="round" stroke-linejoin="round" stroke-width="16"/><line x1="128" y1="80" x2="128" y2="120" fill="none" stroke="currentColor" stroke-linecap="round" stroke-linejoin="round" stroke-width="16"/><line x1="192" y1="120" x2="192" y2="168" fill="none" stroke="currentColor" stroke-linecap="round" stroke-linejoin="round" stroke-width="16"/><line x1="64" y1="168" x2="64" y2="120" fill="none" stroke="currentColor" stroke-linecap="round" stroke-linejoin="round" stroke-width="16"/><line x1="24" y1="120" x2="232" y2="120" fill="none" stroke="currentColor" stroke-linecap="round" stroke-linejoin="round" stroke-width="16"/></symbol>
  <symbol id="royalte-settings" viewBox="0 0 256 256"><path d="M230.1,108.76,198.25,90.62c-.64-1.16-1.31-2.29-2-3.41l-.12-36A104.61,104.61,0,0,0,162,32L130,49.89c-1.34,0-2.69,0-4,0L94,32A104.58,104.58,0,0,0,59.89,51.25l-.16,36c-.7,1.12-1.37,2.26-2,3.41l-31.84,18.1a99.15,99.15,0,0,0,0,38.46l31.85,18.14c.64,1.16,1.31,2.29,2,3.41l.12,36A104.61,104.61,0,0,0,94,224l32-17.87c1.34,0,2.69,0,4,0L162,224a104.58,104.58,0,0,0,34.08-19.25l.16-36c.7-1.12,1.37-2.26,2-3.41l31.84-18.1A99.15,99.15,0,0,0,230.1,108.76ZM128,168a40,40,0,1,1,40-40A40,40,0,0,1,128,168Z" opacity="0.2"/><circle cx="128" cy="128" r="40" fill="none" stroke="currentColor" stroke-linecap="round" stroke-linejoin="round" stroke-width="16"/><path d="M130.05,206.11c-1.34,0-2.69,0-4,0L94,224a104.61,104.61,0,0,1-34.11-19.2l-.12-36c-.71-1.12-1.38-2.25-2-3.41L25.9,147.24a99.15,99.15,0,0,1,0-38.46l31.84-18.1c.65-1.15,1.32-2.29,2-3.41l.16-36A104.58,104.58,0,0,1,94,32l32,17.89c1.34,0,2.69,0,4,0L162,32a104.61,104.61,0,0,1,34.11,19.2l.12,36c.71,1.12,1.38,2.25,2,3.41l31.85,18.14a99.15,99.15,0,0,1,0,38.46l-31.84,18.1c-.65,1.15-1.32,2.29-2,3.41l-.16,36A104.58,104.58,0,0,1,162,224Z" fill="none" stroke="currentColor" stroke-linecap="round" stroke-linejoin="round" stroke-width="16"/></symbol>
  <symbol id="royalte-monitoring" viewBox="0 0 256 256"><rect x="48" y="96" width="160" height="64" opacity="0.2"/><line x1="48" y1="96" x2="48" y2="160" fill="none" stroke="currentColor" stroke-linecap="round" stroke-linejoin="round" stroke-width="16"/><line x1="88" y1="32" x2="88" y2="224" fill="none" stroke="currentColor" stroke-linecap="round" stroke-linejoin="round" stroke-width="16"/><line x1="128" y1="64" x2="128" y2="192" fill="none" stroke="currentColor" stroke-linecap="round" stroke-linejoin="round" stroke-width="16"/><line x1="168" y1="96" x2="168" y2="160" fill="none" stroke="currentColor" stroke-linecap="round" stroke-linejoin="round" stroke-width="16"/><line x1="208" y1="80" x2="208" y2="176" fill="none" stroke="currentColor" stroke-linecap="round" stroke-linejoin="round" stroke-width="16"/></symbol>

  <!-- ── UI Controls ─────────────────────────────────────── -->
  <symbol id="royalte-calendar" viewBox="0 0 256 256"><path d="M40,88H216V48a8,8,0,0,0-8-8H48a8,8,0,0,0-8,8Z" opacity="0.2"/><rect x="40" y="40" width="176" height="176" rx="8" fill="none" stroke="currentColor" stroke-linecap="round" stroke-linejoin="round" stroke-width="16"/><line x1="176" y1="24" x2="176" y2="56" fill="none" stroke="currentColor" stroke-linecap="round" stroke-linejoin="round" stroke-width="16"/><line x1="80" y1="24" x2="80" y2="56" fill="none" stroke="currentColor" stroke-linecap="round" stroke-linejoin="round" stroke-width="16"/><line x1="40" y1="88" x2="216" y2="88" fill="none" stroke="currentColor" stroke-linecap="round" stroke-linejoin="round" stroke-width="16"/></symbol>
  <symbol id="royalte-caret-down" viewBox="0 0 256 256"><polygon points="208 96 128 176 48 96 208 96" opacity="0.2"/><polygon points="208 96 128 176 48 96 208 96" fill="none" stroke="currentColor" stroke-linecap="round" stroke-linejoin="round" stroke-width="16"/></symbol>
  <symbol id="royalte-check" viewBox="0 0 256 256"><path d="M104,147.43l98.34-97.09a8,8,0,0,1,11.32,0l24,23.6a8,8,0,0,1,0,11.32l-128.4,128.4a8,8,0,0,1-11.32,0l-71.6-72a8,8,0,0,1,0-11.31l24-24a8,8,0,0,1,11.32,0Z" opacity="0.2"/><path d="M104,147.43l98.34-97.09a8,8,0,0,1,11.32,0l24,23.6a8,8,0,0,1,0,11.32l-128.4,128.4a8,8,0,0,1-11.32,0l-71.6-72a8,8,0,0,1,0-11.31l24-24a8,8,0,0,1,11.32,0Z" fill="none" stroke="currentColor" stroke-linecap="round" stroke-linejoin="round" stroke-width="16"/></symbol>
  <symbol id="royalte-check-circle" viewBox="0 0 256 256"><circle cx="128" cy="128" r="96" opacity="0.2"/><polyline points="88 136 112 160 168 104" fill="none" stroke="currentColor" stroke-linecap="round" stroke-linejoin="round" stroke-width="16"/><circle cx="128" cy="128" r="96" fill="none" stroke="currentColor" stroke-linecap="round" stroke-linejoin="round" stroke-width="16"/></symbol>
  <symbol id="royalte-warning" viewBox="0 0 256 256"><circle cx="128" cy="128" r="96" opacity="0.2"/><circle cx="128" cy="128" r="96" fill="none" stroke="currentColor" stroke-miterlimit="10" stroke-width="16"/><line x1="128" y1="136" x2="128" y2="80" fill="none" stroke="currentColor" stroke-linecap="round" stroke-linejoin="round" stroke-width="16"/><circle cx="128" cy="172" r="12"/></symbol>
  <symbol id="royalte-alert" viewBox="0 0 256 256"><path d="M142.41,40.22l87.46,151.87C236,202.79,228.08,216,215.46,216H40.54C27.92,216,20,202.79,26.13,192.09L113.59,40.22C119.89,29.26,136.11,29.26,142.41,40.22Z" opacity="0.2"/><path d="M142.41,40.22l87.46,151.87C236,202.79,228.08,216,215.46,216H40.54C27.92,216,20,202.79,26.13,192.09L113.59,40.22C119.89,29.26,136.11,29.26,142.41,40.22Z" fill="none" stroke="currentColor" stroke-linecap="round" stroke-linejoin="round" stroke-width="16"/><line x1="128" y1="144" x2="128" y2="104" fill="none" stroke="currentColor" stroke-linecap="round" stroke-linejoin="round" stroke-width="16"/><circle cx="128" cy="180" r="12"/></symbol>
  <symbol id="royalte-clock" viewBox="0 0 256 256"><circle cx="128" cy="128" r="96" opacity="0.2"/><circle cx="128" cy="128" r="96" fill="none" stroke="currentColor" stroke-linecap="round" stroke-linejoin="round" stroke-width="16"/><polyline points="128 72 128 128 184 128" fill="none" stroke="currentColor" stroke-linecap="round" stroke-linejoin="round" stroke-width="16"/></symbol>
  <symbol id="royalte-trend-up" viewBox="0 0 256 256"><polyline points="232 56 168 56 232 120 232 56" opacity="0.2"/><polygon points="232 120 232 56 168 56 232 120" fill="none" stroke="currentColor" stroke-linecap="round" stroke-linejoin="round" stroke-width="16"/><polyline points="200 88 136 152 96 112 24 184" fill="none" stroke="currentColor" stroke-linecap="round" stroke-linejoin="round" stroke-width="16"/></symbol>
  <symbol id="royalte-arrow-up" viewBox="0 0 256 256"><polygon points="56 112 128 40 200 112 56 112" opacity="0.2"/><line x1="128" y1="216" x2="128" y2="112" fill="none" stroke="currentColor" stroke-linecap="round" stroke-linejoin="round" stroke-width="16"/><polygon points="56 112 128 40 200 112 56 112" fill="none" stroke="currentColor" stroke-linecap="round" stroke-linejoin="round" stroke-width="16"/></symbol>

  <!-- ── Health Intelligence ─────────────────────────────── -->
  <symbol id="royalte-signal" viewBox="0 0 256 256"><path d="M128,224S24,168,24,102A54,54,0,0,1,78,48c22.59,0,41.94,12.31,50,32,8.06-19.69,27.41-32,50-32a54,54,0,0,1,54,54C232,168,128,224,128,224Z" opacity="0.2"/><polyline points="32 136 72 136 88 112 120 160 136 136 160 136" fill="none" stroke="currentColor" stroke-linecap="round" stroke-linejoin="round" stroke-width="16"/><path d="M24,104c0-.67,0-1.33,0-2A54,54,0,0,1,78,48c22.59,0,41.94,12.31,50,32,8.06-19.69,27.41-32,50-32a54,54,0,0,1,54,54c0,66-104,122-104,122s-42-22.6-72.58-56" fill="none" stroke="currentColor" stroke-linecap="round" stroke-linejoin="round" stroke-width="16"/></symbol>
  <symbol id="royalte-performance" viewBox="0 0 256 256"><path d="M32,48H208a16,16,0,0,1,16,16V208a0,0,0,0,1,0,0H32a0,0,0,0,1,0,0V48A0,0,0,0,1,32,48Z" opacity="0.2"/><polyline points="224 208 32 208 32 48" fill="none" stroke="currentColor" stroke-linecap="round" stroke-linejoin="round" stroke-width="16"/><polyline points="200 72 128 144 96 112 32 176" fill="none" stroke="currentColor" stroke-linecap="round" stroke-linejoin="round" stroke-width="16"/><polyline points="200 112 200 72 160 72" fill="none" stroke="currentColor" stroke-linecap="round" stroke-linejoin="round" stroke-width="16"/></symbol>
  <symbol id="royalte-insights" viewBox="0 0 256 256"><path d="M78.7,167A79.87,79.87,0,0,1,48,104.45C47.76,61.09,82.72,25,126.07,24a80,80,0,0,1,51.34,142.9A24.3,24.3,0,0,0,168,186v6a8,8,0,0,1-8,8H96a8,8,0,0,1-8-8v-6A24.11,24.11,0,0,0,78.7,167Z" opacity="0.2"/><line x1="88" y1="232" x2="168" y2="232" fill="none" stroke="currentColor" stroke-linecap="round" stroke-linejoin="round" stroke-width="16"/><path d="M78.7,167A79.87,79.87,0,0,1,48,104.45C47.76,61.09,82.72,25,126.07,24a80,80,0,0,1,51.34,142.9A24.3,24.3,0,0,0,168,186v6a8,8,0,0,1-8,8H96a8,8,0,0,1-8-8v-6A24.11,24.11,0,0,0,78.7,167Z" fill="none" stroke="currentColor" stroke-linecap="round" stroke-linejoin="round" stroke-width="16"/><path d="M136,56c20,3.37,36.61,20,40,40" fill="none" stroke="currentColor" stroke-linecap="round" stroke-linejoin="round" stroke-width="16"/></symbol>
  <symbol id="royalte-youtube" viewBox="0 0 256 256"><path d="M226.59,71.53a16,16,0,0,0-9.63-11C183.48,47.65,128,48,128,48s-55.48-.35-89,12.58a16,16,0,0,0-9.63,11C27.07,80.54,24,98.09,24,128s3.07,47.46,5.41,56.47A16,16,0,0,0,39,195.42C72.52,208.35,128,208,128,208s55.48.35,89-12.58a16,16,0,0,0,9.63-10.95c2.34-9,5.41-26.56,5.41-56.47S228.93,80.54,226.59,71.53ZM112,160V96l48,32Z" opacity="0.2"/><polygon points="160 128 112 96 112 160 160 128" fill="none" stroke="currentColor" stroke-linecap="round" stroke-linejoin="round" stroke-width="16"/><path d="M24,128c0,29.91,3.07,47.45,5.41,56.47A16,16,0,0,0,39,195.42C72.52,208.35,128,208,128,208s55.48.35,89-12.58a16,16,0,0,0,9.63-10.95c2.34-9,5.41-26.56,5.41-56.47s-3.07-47.45-5.41-56.47a16,16,0,0,0-9.63-11C183.48,47.65,128,48,128,48s-55.48-.35-89,12.58a16,16,0,0,0-9.63,11C27.07,80.54,24,98.09,24,128Z" fill="none" stroke="currentColor" stroke-linecap="round" stroke-linejoin="round" stroke-width="16"/></symbol>

  <!-- ── Identity Intelligence ───────────────────────────── -->
  <symbol id="royalte-verified" viewBox="0 0 256 256"><path d="M216,112V56a8,8,0,0,0-8-8H48a8,8,0,0,0-8,8v56c0,96,88,120,88,120S216,208,216,112Z" opacity="0.2"/><path d="M216,112V56a8,8,0,0,0-8-8H48a8,8,0,0,0-8,8v56c0,96,88,120,88,120S216,208,216,112Z" fill="none" stroke="currentColor" stroke-linecap="round" stroke-linejoin="round" stroke-width="16"/><polyline points="88 136 112 160 168 104" fill="none" stroke="currentColor" stroke-linecap="round" stroke-linejoin="round" stroke-width="16"/></symbol>
  <symbol id="royalte-profile" viewBox="0 0 256 256"><path d="M128,32A96,96,0,0,0,63.8,199.38h0A72,72,0,0,1,128,160a40,40,0,1,1,40-40,40,40,0,0,1-40,40,72,72,0,0,1,64.2,39.37A96,96,0,0,0,128,32Z" opacity="0.2"/><path d="M63.8,199.37a72,72,0,0,1,128.4,0" fill="none" stroke="currentColor" stroke-linecap="round" stroke-linejoin="round" stroke-width="16"/><circle cx="128" cy="128" r="96" fill="none" stroke="currentColor" stroke-linecap="round" stroke-linejoin="round" stroke-width="16"/><circle cx="128" cy="120" r="40" fill="none" stroke="currentColor" stroke-linecap="round" stroke-linejoin="round" stroke-width="16"/></symbol>
  <symbol id="royalte-fingerprint" viewBox="0 0 256 256"><circle cx="128" cy="128" r="96" opacity="0.2"/><path d="M50.69,184.92A127.52,127.52,0,0,0,64,128a63.85,63.85,0,0,1,24-50" fill="none" stroke="currentColor" stroke-linecap="round" stroke-linejoin="round" stroke-width="16"/><path d="M128,128a191.11,191.11,0,0,1-24,93" fill="none" stroke="currentColor" stroke-linecap="round" stroke-linejoin="round" stroke-width="16"/><path d="M96,128a32,32,0,0,1,64,0,223.12,223.12,0,0,1-21.28,95.41" fill="none" stroke="currentColor" stroke-linecap="round" stroke-linejoin="round" stroke-width="16"/><path d="M218.56,184A289.45,289.45,0,0,0,224,128a96,96,0,0,0-192,0,95.8,95.8,0,0,1-5.47,32" fill="none" stroke="currentColor" stroke-linecap="round" stroke-linejoin="round" stroke-width="16"/><path d="M92.81,160a158.92,158.92,0,0,1-18.12,47.84" fill="none" stroke="currentColor" stroke-linecap="round" stroke-linejoin="round" stroke-width="16"/><path d="M120,64.5a66,66,0,0,1,8-.49,64,64,0,0,1,64,64,259.86,259.86,0,0,1-2,32" fill="none" stroke="currentColor" stroke-linecap="round" stroke-linejoin="round" stroke-width="16"/><path d="M183.94,192q-2.28,8.88-5.18,17.5" fill="none" stroke="currentColor" stroke-linecap="round" stroke-linejoin="round" stroke-width="16"/></symbol>
  <symbol id="royalte-organization" viewBox="0 0 256 256"><path d="M136,216V32a8,8,0,0,0-12.44-6.65l-80,53.33A8,8,0,0,0,40,85.35V216Z" opacity="0.2"/><path d="M136,216V32a8,8,0,0,0-12.44-6.65l-80,53.33A8,8,0,0,0,40,85.35V216" fill="none" stroke="currentColor" stroke-linecap="round" stroke-linejoin="round" stroke-width="16"/><path d="M136,88h72a8,8,0,0,1,8,8V216" fill="none" stroke="currentColor" stroke-linecap="round" stroke-linejoin="round" stroke-width="16"/><line x1="16" y1="216" x2="240" y2="216" fill="none" stroke="currentColor" stroke-linecap="round" stroke-linejoin="round" stroke-width="16"/><line x1="104" y1="112" x2="104" y2="128" fill="none" stroke="currentColor" stroke-linecap="round" stroke-linejoin="round" stroke-width="16"/><line x1="72" y1="112" x2="72" y2="128" fill="none" stroke="currentColor" stroke-linecap="round" stroke-linejoin="round" stroke-width="16"/><line x1="72" y1="168" x2="72" y2="184" fill="none" stroke="currentColor" stroke-linecap="round" stroke-linejoin="round" stroke-width="16"/><line x1="104" y1="168" x2="104" y2="184" fill="none" stroke="currentColor" stroke-linecap="round" stroke-linejoin="round" stroke-width="16"/></symbol>

  <!-- ── Publishing Intelligence ─────────────────────────── -->
  <symbol id="royalte-compositions" viewBox="0 0 256 256"><circle cx="180" cy="164" r="28" opacity="0.2"/><circle cx="52" cy="196" r="28" opacity="0.2"/><circle cx="180" cy="164" r="28" fill="none" stroke="currentColor" stroke-linecap="round" stroke-linejoin="round" stroke-width="16"/><circle cx="52" cy="196" r="28" fill="none" stroke="currentColor" stroke-linecap="round" stroke-linejoin="round" stroke-width="16"/><line x1="208" y1="72" x2="80" y2="104" fill="none" stroke="currentColor" stroke-linecap="round" stroke-linejoin="round" stroke-width="16"/><polyline points="80 196 80 56 208 24 208 164" fill="none" stroke="currentColor" stroke-linecap="round" stroke-linejoin="round" stroke-width="16"/></symbol>
  <symbol id="royalte-administration" viewBox="0 0 256 256"><path d="M136,216V32a8,8,0,0,0-12.44-6.65l-80,53.33A8,8,0,0,0,40,85.35V216Z" opacity="0.2"/><path d="M136,216V32a8,8,0,0,0-12.44-6.65l-80,53.33A8,8,0,0,0,40,85.35V216" fill="none" stroke="currentColor" stroke-linecap="round" stroke-linejoin="round" stroke-width="16"/><path d="M136,88h72a8,8,0,0,1,8,8V216" fill="none" stroke="currentColor" stroke-linecap="round" stroke-linejoin="round" stroke-width="16"/><line x1="16" y1="216" x2="240" y2="216" fill="none" stroke="currentColor" stroke-linecap="round" stroke-linejoin="round" stroke-width="16"/><line x1="104" y1="112" x2="104" y2="128" fill="none" stroke="currentColor" stroke-linecap="round" stroke-linejoin="round" stroke-width="16"/><line x1="72" y1="112" x2="72" y2="128" fill="none" stroke="currentColor" stroke-linecap="round" stroke-linejoin="round" stroke-width="16"/><line x1="72" y1="168" x2="72" y2="184" fill="none" stroke="currentColor" stroke-linecap="round" stroke-linejoin="round" stroke-width="16"/><line x1="104" y1="168" x2="104" y2="184" fill="none" stroke="currentColor" stroke-linecap="round" stroke-linejoin="round" stroke-width="16"/></symbol>
  <symbol id="royalte-claims" viewBox="0 0 256 256"><path d="M42.34,138.34A8,8,0,0,1,40,132.69V40h92.69a8,8,0,0,1,5.65,2.34l99.32,99.32a8,8,0,0,1,0,11.31L153,237.66a8,8,0,0,1-11.31,0Z" opacity="0.2"/><path d="M42.34,138.34A8,8,0,0,1,40,132.69V40h92.69a8,8,0,0,1,5.65,2.34l99.32,99.32a8,8,0,0,1,0,11.31L153,237.66a8,8,0,0,1-11.31,0Z" fill="none" stroke="currentColor" stroke-linecap="round" stroke-linejoin="round" stroke-width="16"/><circle cx="84" cy="84" r="12"/></symbol>
  <symbol id="royalte-collection" viewBox="0 0 256 256"><path d="M128,128h24a40,40,0,0,1,0,80H128Z" opacity="0.2"/><path d="M128,48H112a40,40,0,0,0,0,80h16Z" opacity="0.2"/><line x1="128" y1="24" x2="128" y2="232" fill="none" stroke="currentColor" stroke-linecap="round" stroke-linejoin="round" stroke-width="16"/><path d="M184,88a40,40,0,0,0-40-40H112a40,40,0,0,0,0,80h40a40,40,0,0,1,0,80H104a40,40,0,0,1-40-40" fill="none" stroke="currentColor" stroke-linecap="round" stroke-linejoin="round" stroke-width="16"/></symbol>
  <symbol id="royalte-rights" viewBox="0 0 256 256"><circle cx="128" cy="128" r="96" opacity="0.2"/><circle cx="128" cy="128" r="96" fill="none" stroke="currentColor" stroke-linecap="round" stroke-linejoin="round" stroke-width="16"/><path d="M160,152a40,40,0,1,1,0-48" fill="none" stroke="currentColor" stroke-linecap="round" stroke-linejoin="round" stroke-width="16"/></symbol>
  <symbol id="royalte-publisher" viewBox="0 0 256 256"><path d="M216,48H40a8,8,0,0,0-8,8V200a8,8,0,0,0,8,8H216a8,8,0,0,0,8-8V56A8,8,0,0,0,216,48ZM96,144a24,24,0,1,1,24-24A24,24,0,0,1,96,144Z" opacity="0.2"/><line x1="152" y1="112" x2="192" y2="112" fill="none" stroke="currentColor" stroke-linecap="round" stroke-linejoin="round" stroke-width="16"/><line x1="152" y1="144" x2="192" y2="144" fill="none" stroke="currentColor" stroke-linecap="round" stroke-linejoin="round" stroke-width="16"/><rect x="32" y="48" width="192" height="160" rx="8" fill="none" stroke="currentColor" stroke-linecap="round" stroke-linejoin="round" stroke-width="16"/><circle cx="96" cy="120" r="24" fill="none" stroke="currentColor" stroke-linecap="round" stroke-linejoin="round" stroke-width="16"/><path d="M64,168c3.55-13.8,17.09-24,32-24s28.46,10.19,32,24" fill="none" stroke="currentColor" stroke-linecap="round" stroke-linejoin="round" stroke-width="16"/></symbol>

  <!-- ── Catalog Intelligence ────────────────────────────── -->
  <symbol id="royalte-artwork" viewBox="0 0 256 256"><path d="M208,40H48a8,8,0,0,0-8,8V208a8,8,0,0,0,8,8h8.69L166.34,106.34a8,8,0,0,1,11.32,0L216,144.69V48A8,8,0,0,0,208,40ZM96,112a16,16,0,1,1,16-16A16,16,0,0,1,96,112Z" opacity="0.2"/><rect x="40" y="40" width="176" height="176" rx="8" fill="none" stroke="currentColor" stroke-linecap="round" stroke-linejoin="round" stroke-width="16"/><circle cx="96" cy="96" r="16" fill="none" stroke="currentColor" stroke-linecap="round" stroke-linejoin="round" stroke-width="16"/><path d="M56.69,216,166.34,106.34a8,8,0,0,1,11.32,0L216,144.69" fill="none" stroke="currentColor" stroke-linecap="round" stroke-linejoin="round" stroke-width="16"/></symbol>
  <symbol id="royalte-lyrics" viewBox="0 0 256 256"><rect x="88" y="24" width="80" height="144" rx="40" opacity="0.2"/><rect x="88" y="24" width="80" height="144" rx="40" fill="none" stroke="currentColor" stroke-linecap="round" stroke-linejoin="round" stroke-width="16"/><line x1="128" y1="200" x2="128" y2="240" fill="none" stroke="currentColor" stroke-linecap="round" stroke-linejoin="round" stroke-width="16"/><path d="M200,128a72,72,0,0,1-144,0" fill="none" stroke="currentColor" stroke-linecap="round" stroke-linejoin="round" stroke-width="16"/></symbol>
  <symbol id="royalte-credits" viewBox="0 0 256 256"><circle cx="84" cy="108" r="52" opacity="0.2"/><path d="M10.23,200a88,88,0,0,1,147.54,0" fill="none" stroke="currentColor" stroke-linecap="round" stroke-linejoin="round" stroke-width="16"/><path d="M172,160a87.93,87.93,0,0,1,73.77,40" fill="none" stroke="currentColor" stroke-linecap="round" stroke-linejoin="round" stroke-width="16"/><circle cx="84" cy="108" r="52" fill="none" stroke="currentColor" stroke-linecap="round" stroke-linejoin="round" stroke-width="16"/><path d="M152.69,59.7A52,52,0,1,1,172,160" fill="none" stroke="currentColor" stroke-linecap="round" stroke-linejoin="round" stroke-width="16"/></symbol>
  <symbol id="royalte-isrc" viewBox="0 0 256 256"><polygon points="101.82 96 90.18 160 154.18 160 165.82 96 101.82 96" opacity="0.2"/><line x1="48" y1="96" x2="224" y2="96" fill="none" stroke="currentColor" stroke-linecap="round" stroke-linejoin="round" stroke-width="16"/><line x1="176" y1="40" x2="144" y2="216" fill="none" stroke="currentColor" stroke-linecap="round" stroke-linejoin="round" stroke-width="16"/><line x1="112" y1="40" x2="80" y2="216" fill="none" stroke="currentColor" stroke-linecap="round" stroke-linejoin="round" stroke-width="16"/><line x1="32" y1="160" x2="208" y2="160" fill="none" stroke="currentColor" stroke-linecap="round" stroke-linejoin="round" stroke-width="16"/></symbol>
  <symbol id="royalte-upc" viewBox="0 0 256 256"><rect x="32" y="48" width="192" height="160" opacity="0.2"/><polyline points="184 48 224 48 224 88" fill="none" stroke="currentColor" stroke-linecap="round" stroke-linejoin="round" stroke-width="16"/><polyline points="72 208 32 208 32 168" fill="none" stroke="currentColor" stroke-linecap="round" stroke-linejoin="round" stroke-width="16"/><polyline points="224 168 224 208 184 208" fill="none" stroke="currentColor" stroke-linecap="round" stroke-linejoin="round" stroke-width="16"/><polyline points="32 88 32 48 72 48" fill="none" stroke="currentColor" stroke-linecap="round" stroke-linejoin="round" stroke-width="16"/><line x1="80" y1="88" x2="80" y2="168" fill="none" stroke="currentColor" stroke-linecap="round" stroke-linejoin="round" stroke-width="16"/><line x1="176" y1="88" x2="176" y2="168" fill="none" stroke="currentColor" stroke-linecap="round" stroke-linejoin="round" stroke-width="16"/><line x1="144" y1="88" x2="144" y2="168" fill="none" stroke="currentColor" stroke-linecap="round" stroke-linejoin="round" stroke-width="16"/><line x1="112" y1="88" x2="112" y2="168" fill="none" stroke="currentColor" stroke-linecap="round" stroke-linejoin="round" stroke-width="16"/></symbol>
  <symbol id="royalte-metadata" viewBox="0 0 256 256"><circle cx="128" cy="128" r="96" opacity="0.2"/><polyline points="88 136 112 160 168 104" fill="none" stroke="currentColor" stroke-linecap="round" stroke-linejoin="round" stroke-width="16"/><circle cx="128" cy="128" r="96" fill="none" stroke="currentColor" stroke-linecap="round" stroke-linejoin="round" stroke-width="16"/></symbol>
  <symbol id="royalte-track" viewBox="0 0 256 256"><circle cx="88" cy="184" r="40" opacity="0.2"/><circle cx="88" cy="184" r="40" fill="none" stroke="currentColor" stroke-linecap="round" stroke-linejoin="round" stroke-width="16"/><polyline points="128 184 128 40 208 64 208 112 128 88" fill="none" stroke="currentColor" stroke-linecap="round" stroke-linejoin="round" stroke-width="16"/></symbol>
  <symbol id="royalte-release" viewBox="0 0 256 256"><path d="M160,128a32,32,0,1,1-9.37-22.63h0l45.25-45.25h0A96,96,0,1,0,224,128Z" opacity="0.2"/><circle cx="128" cy="128" r="96" fill="none" stroke="currentColor" stroke-linecap="round" stroke-linejoin="round" stroke-width="16"/><circle cx="128" cy="128" r="32" fill="none" stroke="currentColor" stroke-linecap="round" stroke-linejoin="round" stroke-width="16"/><line x1="224" y1="128" x2="160" y2="128" fill="none" stroke="currentColor" stroke-linecap="round" stroke-linejoin="round" stroke-width="16"/><line x1="195.88" y1="60.12" x2="150.63" y2="105.37" fill="none" stroke="currentColor" stroke-linecap="round" stroke-linejoin="round" stroke-width="16"/></symbol>
  <symbol id="royalte-projects" viewBox="0 0 256 256"><polygon points="32 80 128 136 224 80 128 24 32 80" opacity="0.2"/><polyline points="32 176 128 232 224 176" fill="none" stroke="currentColor" stroke-linecap="round" stroke-linejoin="round" stroke-width="16"/><polyline points="32 128 128 184 224 128" fill="none" stroke="currentColor" stroke-linecap="round" stroke-linejoin="round" stroke-width="16"/><polygon points="32 80 128 136 224 80 128 24 32 80" fill="none" stroke="currentColor" stroke-linecap="round" stroke-linejoin="round" stroke-width="16"/></symbol>

</svg>